<?xml version="1.0" encoding="UTF-8"?>
<svg id="Calque_2" data-name="Calque 2" xmlns="http://www.w3.org/2000/svg" viewBox="0 0 528.31 451.72">
  <defs>
    <style>
      .cls-1 {
        fill: #fff;
      }
    </style>
  </defs>
  <g id="Calque_1-2" data-name="Calque 1">
    <path class="cls-1" d="M353.48,240.72c.91-3.27,1.84-6.52,2.8-9.77C383.27,138.86,526.08,2.11,528.31,0c-2.37,1.25-115.37,62.52-181.99,136.79-67.32,75.07-83.31,127.61-83.31,127.61,0,0,44.74-53.95,61.29-53.87,13.76.07,7.56,35.61-20.78,76.35-28.33,40.73-93.62,94.62-121.31,109.76-27.69,15.13-44.82,8.91-31.87-39.75,5.35-20.08,26.02-36.58,39.09-38.9,8.27-1.46,12.11-8.89,13.58-12.09,44.22-96.22,13.91-229.99,7.75-242.84,3.2,87.04-49.4,148.71-67.85,169.71-17.55,19.98-130.72,125.48-130.58,125.75.14.28,38.58-10.05,48.61-.72,14.42,13.39-57.84,88.81-60.92,92.04,3.05-2.54,80.26-66.78,100.06-56.71,18.2,9.27-2.1,41.72,23.74,55.25,25.85,13.54,40.12-16.85,84.3-41.46,44.19-24.61,68.05-10.47,104.24-26.09,40.88-17.63,90.34-72.7,91.16-73.92-.72.45-14.69,5.91-15.58,6.22-6.95,2.43-13.85,5.09-21.07,6.6-5.5,1.13-11.84,2.15-17.09-.43-5.25-2.56-7.23-8.04-7.81-13.52-1.36-12.69,1.94-25.26,4.6-37.55,1.99-9.25,4.39-18.4,6.94-27.51ZM364.17,151.83c.41-4.96,4.45-9.27,7.41-12.94,9.7-11.99,21.36-22.31,32.87-32.52,5.48-4.87,17.93-15.24,18.31-15.3-1.16,1.19-2.63,3.04-3.17,3.69-2.53,3.03-5.03,6.08-7.52,9.14-5.84,7.16-11.91,14.16-17.3,21.67-5.15,7.18-9.25,15.05-14.37,22.25-2.62,3.69-6.02,8.09-10.59,9.36-1.06.29-2.22.29-3.21-.17-1.67-.79-2.5-2.8-2.45-4.66l.03-.52ZM205.18,154.67c.64-1.77,1.63-3.39,2.58-5.03,1.88-3.3,3.57-6.7,5.04-10.19.24,2.59.15,5.2.11,7.81-.05,1.99-.23,3.97-.61,5.92-.49,2.47-1.31,5.65-3.27,7.44-.74.68-1.71.98-2.57.85-.82-.13-1.53-.67-1.82-1.68-.45-1.62-.03-3.57.54-5.11ZM194.05,200.45c1.45-3.32,3.55-6.31,5.54-9.34,4.01-6.08,7.65-12.41,10.9-18.92.12,3.77-.13,7.54-.44,11.3-.41,5.12-.97,10.28-2.28,15.26-1.23,4.63-3.19,10.45-7.07,13.56-1.49,1.2-3.4,1.68-5.02,1.32-1.55-.34-2.86-1.46-3.28-3.46-.66-3.15.38-6.82,1.64-9.71ZM181.55,260.94c2.3-4.34,5.43-8.16,8.43-12.04,6.03-7.81,11.59-15.98,16.64-24.45-.23,5.09-.95,10.16-1.74,15.2-1.08,6.88-2.34,13.78-4.63,20.38-2.12,6.13-5.37,13.78-10.92,17.58-2.14,1.48-4.76,1.93-6.91,1.28-2.07-.63-3.71-2.27-4.08-5-.58-4.33,1.21-9.17,3.2-12.94ZM117.09,332.23c-4.26,2.03-9.08,2.1-12.76.33-3.53-1.7-6.01-5.1-5.89-10.11.18-7.92,4.72-16.12,9.36-22.32,5.34-7.13,12.04-13.1,18.51-19.23,13-12.3,25.27-25.38,36.71-39.15-1.84,9.08-4.55,17.96-7.39,26.78-3.87,12.03-8.08,24.05-14.02,35.24-5.52,10.38-13.51,23.19-24.52,28.45ZM340.22,344.41c7.91-4.06,14.72-8.99,14.76-9,0,.03-14.06,18.28-38.51,29.71-.11.05-.24.12-.36.18-11.62,5.63-27.56,9.54-35.57,10.85-6.51,1.05-7.77-2.08-8.01-3.29v-.03c-.03-.05-.04-.1-.07-.16-1.08-3.35,3.12-6.16,5.3-7.28,6.54-3.33,13.57-4.02,20.48-5.86,7.28-1.95,14.56-3.86,21.76-6.16,6.98-2.22,13.65-5.57,20.21-8.96Z"/>
  </g>
</svg>